<svg width="24" height="24" viewBox="0 0 24 24" fill="none" xmlns="http://www.w3.org/2000/svg">
<path d="M21.7313 2.269C21.239 1.77681 20.5714 1.50031 19.8753 1.50031C19.1791 1.50031 18.5115 1.77681 18.0193 2.269L16.8623 3.426L20.5743 7.138L21.7313 5.981C22.2234 5.48873 22.4999 4.82112 22.4999 4.125C22.4999 3.42888 22.2234 2.76127 21.7313 2.269ZM19.5133 8.199L15.8013 4.487L3.65125 16.637C3.03411 17.2538 2.58043 18.0148 2.33125 18.851L1.53125 21.536C1.49263 21.6656 1.48975 21.8032 1.52292 21.9342C1.55608 22.0653 1.62407 22.185 1.71967 22.2806C1.81527 22.3762 1.93494 22.4442 2.06601 22.4773C2.19709 22.5105 2.33469 22.5076 2.46425 22.469L5.14925 21.669C5.98548 21.4198 6.74642 20.9661 7.36325 20.349L19.5133 8.199Z"/>
</svg>
